<svg xmlns="http://www.w3.org/2000/svg" viewBox="0 0 1000 500">
  <rect x="198" y="33" width="33" height="33" fill="none" stroke="#000"/>
  <rect x="198" y="99" width="33" height="33" fill="none" stroke="#000"/>
  <rect x="264" y="99" width="33" height="33" fill="none" stroke="#000"/>
  <rect x="231" y="165" width="33" height="33" fill="none" stroke="#000"/>
  <rect x="297" y="231" width="33" height="33" fill="none" stroke="#000"/>
  <rect x="165" y="231" width="33" height="33" fill="none" stroke="#000"/>
  <rect x="231" y="231" width="33" height="33" fill="none" stroke="#000"/>
  <rect x="297" y="297" width="33" height="33" fill="none" stroke="#000"/>
  <rect x="363" y="297" width="33" height="33" fill="none" stroke="#000"/>
  <rect x="198" y="297" width="33" height="33" fill="none" stroke="#000"/>
  <rect x="198" y="363" width="33" height="33" fill="none" stroke="#000"/>
  <rect x="264" y="363" width="33" height="33" fill="none" stroke="#000"/>
  <rect x="330" y="363" width="33" height="33" fill="none" stroke="#000"/>
  <rect x="231" y="429" width="33" height="33" fill="none" stroke="#000"/>
  <rect x="363" y="429" width="33" height="33" fill="none" stroke="#000"/>
  <rect x="0" y="429" width="33" height="33" fill="none" stroke="#000"/>
  <rect x="66" y="429" width="33" height="33" fill="none" stroke="#000"/>
  <rect x="132" y="429" width="33" height="33" fill="none" stroke="#000"/>
  <rect x="0" y="495" width="33" height="33" fill="none" stroke="#000"/>
  <rect x="66" y="495" width="33" height="33" fill="none" stroke="#000"/>
  <rect x="132" y="495" width="33" height="33" fill="none" stroke="#000"/>
  <rect x="198" y="495" width="33" height="33" fill="none" stroke="#000"/>
  <line x1="16.5" y1="445.5" x2="16.5" y2="511.5" width="33" height="33" fill="none" stroke="#fff"/>
  <line x1="16.5" y1="511.5" x2="82.5" y2="511.5" width="33" height="33" fill="none" stroke="#fff"/>
  <line x1="82.5" y1="445.5" x2="82.5" y2="511.5" width="33" height="33" fill="none" stroke="#fff"/>
  <line x1="148.5" y1="445.5" x2="148.5" y2="511.5" width="33" height="33" fill="none" stroke="#fff"/>
  <line x1="148.5" y1="511.5" x2="214.5" y2="511.5" width="33" height="33" fill="none" stroke="#fff"/>
  <line x1="214.5" y1="379.5" x2="214.5" y2="511.5" width="33" height="33" fill="none" stroke="#fff"/>
  <line x1="214.5" y1="379.5" x2="247.5" y2="445.5" width="33" height="33" fill="none" stroke="#fff"/>
  <line x1="214.5" y1="379.5" x2="214.5" y2="313.5" width="33" height="33" fill="none" stroke="#fff"/>
  <line x1="214.5" y1="379.5" x2="280.5" y2="379.5" width="33" height="33" fill="none" stroke="#fff"/>
  <line x1="346.5" y1="379.5" x2="280.5" y2="379.5" width="33" height="33" fill="none" stroke="#fff"/>
  <line x1="313.5" y1="313.5" x2="346.5" y2="379.5" width="33" height="33" fill="none" stroke="#fff"/>
  <line x1="313.5" y1="313.5" x2="313.5" y2="247.5" width="33" height="33" fill="none" stroke="#fff"/>
  <line x1="379.5" y1="313.5" x2="346.5" y2="379.5" width="33" height="33" fill="none" stroke="#fff"/>
  <line x1="379.5" y1="313.5" x2="379.5" y2="445.5" width="33" height="33" fill="none" stroke="#fff"/>
  <line x1="247.5" y1="445.5" x2="379.5" y2="445.5" width="33" height="33" fill="none" stroke="#fff"/>
  <line x1="214.5" y1="313.5" x2="181.5" y2="247.5" width="33" height="33" fill="none" stroke="#fff"/>
  <line x1="214.5" y1="313.5" x2="247.5" y2="247.5" width="33" height="33" fill="none" stroke="#fff"/>
  <line x1="247.5" y1="181.5" x2="247.5" y2="247.5" width="33" height="33" fill="none" stroke="#fff"/>
  <line x1="214.5" y1="115.5" x2="214.5" y2="313.5" width="33" height="33" fill="none" stroke="#fff"/>
  <line x1="214.5" y1="115.5" x2="214.5" y2="49.5" width="33" height="33" fill="none" stroke="#fff"/>
  <line x1="214.5" y1="115.5" x2="280.5" y2="115.5" width="33" height="33" fill="none" stroke="#fff"/>
  <line x1="247.5" y1="247.5" x2="247.5" y2="181.5" width="33" height="33" fill="none" stroke="#fff"/>
</svg>